<svg width="32" height="32" viewBox="0 0 32 32" fill="none" xmlns="http://www.w3.org/2000/svg">
  <defs>
    <linearGradient id="gradient" x1="0%" y1="0%" x2="100%" y2="100%">
      <stop offset="0%" style="stop-color:#1e3a8a;stop-opacity:1" />
      <stop offset="100%" style="stop-color:#3b82f6;stop-opacity:1" />
    </linearGradient>
  </defs>
  <rect width="32" height="32" rx="8" fill="url(#gradient)"/>
  <g transform="translate(6, 6)">
    <!-- Building/Office Icon -->
    <rect x="2" y="8" width="16" height="12" fill="white" opacity="0.9"/>
    <rect x="4" y="10" width="2" height="2" fill="url(#gradient)" opacity="0.8"/>
    <rect x="7" y="10" width="2" height="2" fill="url(#gradient)" opacity="0.8"/>
    <rect x="10" y="10" width="2" height="2" fill="url(#gradient)" opacity="0.8"/>
    <rect x="13" y="10" width="2" height="2" fill="url(#gradient)" opacity="0.8"/>
    <rect x="4" y="13" width="2" height="2" fill="url(#gradient)" opacity="0.8"/>
    <rect x="7" y="13" width="2" height="2" fill="url(#gradient)" opacity="0.8"/>
    <rect x="10" y="13" width="2" height="2" fill="url(#gradient)" opacity="0.8"/>
    <rect x="13" y="13" width="2" height="2" fill="url(#gradient)" opacity="0.8"/>
    <rect x="4" y="16" width="2" height="2" fill="url(#gradient)" opacity="0.8"/>
    <rect x="7" y="16" width="2" height="2" fill="url(#gradient)" opacity="0.8"/>
    <rect x="10" y="16" width="2" height="2" fill="url(#gradient)" opacity="0.8"/>
    <rect x="13" y="16" width="2" height="2" fill="url(#gradient)" opacity="0.8"/>
    <!-- Top accent -->
    <rect x="6" y="4" width="8" height="4" fill="white" opacity="0.9"/>
    <circle cx="10" cy="6" r="1.5" fill="url(#gradient)"/>
  </g>
</svg>